HIERARCHY
ROOT Hips
{
	OFFSET -0.001795 -0.223333 0.028219
	CHANNELS 6 Xposition Yposition Zposition Zrotation Yrotation Xrotation 
	JOINT LeftUpLeg
	{
		OFFSET 0.069520 -0.091406 -0.006815
		CHANNELS 3 Zrotation Yrotation Xrotation
		JOINT LeftLeg
		{
			OFFSET 0.034277 -0.375199 -0.004496
			CHANNELS 3 Zrotation Yrotation Xrotation
			JOINT LeftFoot
			{
				OFFSET -0.013596 -0.397961 -0.043693
				CHANNELS 3 Zrotation Yrotation Xrotation
				JOINT LeftToe
				{
					OFFSET 0.026358 -0.055791 0.119288
					CHANNELS 3 Zrotation Yrotation Xrotation
					End Site
					{
						OFFSET 0.000000 0.000000 0.000000
					}
				}
			}
		}
	}
	JOINT RightUpLeg
	{
		OFFSET -0.067670 -0.090522 -0.004320
		CHANNELS 3 Zrotation Yrotation Xrotation
		JOINT RightLeg
		{
			OFFSET -0.038290 -0.382569 -0.008850
			CHANNELS 3 Zrotation Yrotation Xrotation
			JOINT RightFoot
			{
				OFFSET 0.015774 -0.398415 -0.042312
				CHANNELS 3 Zrotation Yrotation Xrotation
				JOINT RightToe
				{
					OFFSET -0.025372 -0.048144 0.123348
					CHANNELS 3 Zrotation Yrotation Xrotation
					End Site
					{
						OFFSET 0.000000 0.000000 0.000000
					}
				}
			}
		}
	}
	JOINT Spine
	{
		OFFSET -0.002533 0.108963 -0.026696
		CHANNELS 3 Zrotation Yrotation Xrotation
		JOINT Spine1
		{
			OFFSET 0.005487 0.135180 0.001092
			CHANNELS 3 Zrotation Yrotation Xrotation
			JOINT Spine2
			{
				OFFSET 0.001457 0.052922 0.025425
				CHANNELS 3 Zrotation Yrotation Xrotation
				JOINT Neck
				{
					OFFSET -0.002778 0.213870 -0.042857
					CHANNELS 3 Zrotation Yrotation Xrotation
					JOINT Head
					{
						OFFSET 0.005152 0.064970 0.051349
						CHANNELS 3 Zrotation Yrotation Xrotation
						End Site
						{
							OFFSET 0.000000 0.000000 0.000000
						}
					}
				}
				JOINT LeftShoulder
				{
					OFFSET 0.078845 0.121749 -0.034090
					CHANNELS 3 Zrotation Yrotation Xrotation
					JOINT LeftArm
					{
						OFFSET 0.090977 0.030469 -0.008868
						CHANNELS 3 Zrotation Yrotation Xrotation
						JOINT LeftForeArm
						{
							OFFSET 0.259612 -0.012772 -0.027456
							CHANNELS 3 Zrotation Yrotation Xrotation
							JOINT LeftHand
							{
								OFFSET 0.249234 0.008986 -0.001171
								CHANNELS 3 Zrotation Yrotation Xrotation
								End Site
								{
									OFFSET 0.000000 0.000000 0.000000
								}
							}
						}
					}
				}
				JOINT RightShoulder
				{
					OFFSET -0.081759 0.118833 -0.038615
					CHANNELS 3 Zrotation Yrotation Xrotation
					JOINT RightArm
					{
						OFFSET -0.096012 0.032551 -0.009143
						CHANNELS 3 Zrotation Yrotation Xrotation
						JOINT RightForeArm
						{
							OFFSET -0.253742 -0.013329 -0.021401
							CHANNELS 3 Zrotation Yrotation Xrotation
							JOINT RightHand
							{
								OFFSET -0.255298 0.007772 -0.005559
								CHANNELS 3 Zrotation Yrotation Xrotation
								End Site
								{
									OFFSET 0.000000 0.000000 0.000000
								}
							}
						}
					}
				}
			}
		}
	}
}
MOTION
Frames: 8
Frame Time: 0.050000
0.000000 0.731086 0.000000 1.416539 5.883502 28.221591 17.379495 1.216106 -61.011758 -13.448940 8.382118 69.488357 10.191420 23.314015 -19.824682 0.000000 0.000000 0.000000 -10.109244 -2.610380 -85.385539 4.036020 -1.152609 68.702850 -2.625991 -3.249673 -8.486078 0.000000 0.000000 0.000000 6.046131 -7.202801 48.880402 0.776141 -0.082917 -6.866852 -2.715031 6.885110 8.832098 15.495080 -5.059273 -23.722970 0.000000 0.000000 0.000000 -18.324266 -15.836934 4.821447 -32.129304 -8.449781 -1.381876 17.392174 -22.299427 -2.824326 0.000000 0.000000 0.000000 9.773275 2.677571 2.080875 34.081893 3.806733 -2.746881 -1.654837 18.044643 0.496919 0.000000 0.000000 0.000000 
-0.004327 0.719587 0.000394 1.230643 4.347752 27.666140 17.123250 1.717251 -61.984066 -12.047850 8.402150 75.385854 10.118127 22.151882 -16.092742 0.000000 0.000000 0.000000 -8.702659 -0.480015 -87.540753 2.104748 0.941905 72.008753 -1.259820 2.247172 -9.671057 0.000000 0.000000 0.000000 5.815102 -7.057986 51.443106 1.325932 -0.262015 -7.642765 -3.462365 9.062064 7.551405 15.289089 -3.970976 -26.950953 0.000000 0.000000 0.000000 -16.065887 -15.398097 4.021600 -30.465238 -10.388356 -0.790584 12.440483 -20.320284 -1.731298 0.000000 0.000000 0.000000 13.279658 -0.500365 0.900364 30.419677 0.825355 -3.145618 -1.771211 20.612890 0.650861 0.000000 0.000000 0.000000 
-0.009063 0.706463 0.001640 1.467516 2.056235 26.288737 17.865397 2.849828 -60.340992 -12.537806 10.094013 78.000663 10.280346 22.532831 -19.019314 0.000000 0.000000 0.000000 -9.406008 0.401263 -87.780337 2.888019 0.528834 76.200299 -2.297725 1.385510 -13.506631 0.000000 0.000000 0.000000 5.923182 -6.621429 52.679809 2.759643 -0.789347 -7.786351 -5.325963 10.659852 7.496737 18.008035 -4.756037 -28.568235 0.000000 0.000000 0.000000 -14.657306 -15.697536 3.944652 -32.368656 -8.889679 -1.089494 14.927816 -23.155942 -2.650878 0.000000 0.000000 0.000000 13.739709 -0.992316 0.874495 29.768388 -0.732151 -3.391521 -1.546873 22.369421 0.776182 0.000000 0.000000 0.000000 
-0.014709 0.697138 0.003655 2.196200 1.475383 26.763517 16.944435 2.603814 -61.232517 -11.069763 9.212575 80.958532 10.784446 23.709760 -16.641385 0.000000 0.000000 0.000000 -9.142171 0.932379 -90.357311 2.065252 1.557518 78.269764 -0.895781 5.879426 -12.267353 0.000000 0.000000 0.000000 6.830342 -7.135973 53.309170 2.626267 -0.711991 -8.470467 -5.365591 8.482366 6.407851 16.962094 -3.966104 -30.490339 0.000000 0.000000 0.000000 -14.034154 -14.323203 3.923017 -30.824563 -10.155982 -0.907206 15.153456 -20.865642 -2.283885 0.000000 0.000000 0.000000 11.803114 -0.994285 0.220127 29.936504 -2.182952 -3.360496 -2.442453 23.390815 0.589817 0.000000 0.000000 0.000000 
-0.021776 0.685604 0.006946 2.910409 1.052239 26.363588 15.916518 2.143231 -60.827570 -11.261612 9.621318 82.257416 12.103635 27.812733 -18.109007 0.000000 0.000000 0.000000 -8.850388 1.417294 -91.107458 1.635929 2.183806 80.680458 -1.401356 5.381842 -13.850021 0.000000 0.000000 0.000000 7.342849 -7.299802 52.942887 4.099904 -1.223936 -8.634462 -6.485891 8.720945 6.069117 17.390960 -4.454443 -29.173847 0.000000 0.000000 0.000000 -14.282999 -15.378164 4.366332 -29.452688 -9.553367 -0.950441 16.148551 -20.807557 -2.471736 0.000000 0.000000 0.000000 11.349089 -2.823557 -0.727198 29.815551 -2.221745 -3.342596 -1.268205 23.701009 0.855958 0.000000 0.000000 0.000000 
-0.030444 0.677161 0.011615 2.851071 -0.117428 25.465269 16.233852 2.667463 -59.724872 -11.103462 10.334846 84.620929 12.415082 28.332287 -17.604235 0.000000 0.000000 0.000000 -7.425420 3.631254 -91.558804 0.195087 4.133903 82.571195 -1.355580 7.109101 -15.289585 0.000000 0.000000 0.000000 8.045661 -7.285763 52.570811 3.466064 -1.050970 -8.062811 -5.838946 8.298015 6.065705 16.855343 -4.603692 -28.173736 0.000000 0.000000 0.000000 -12.585481 -13.908923 3.917908 -28.942589 -11.400940 -0.710753 13.171550 -18.448724 -1.654334 0.000000 0.000000 0.000000 10.503793 -3.455378 -1.205517 29.799607 -1.655608 -3.233395 -1.162263 22.290156 0.791788 0.000000 0.000000 0.000000 
-0.040216 0.672013 0.017112 3.399051 -0.354843 24.232602 15.562753 2.292792 -58.270581 -9.921932 9.067255 85.382730 12.582365 28.664076 -17.326633 0.000000 0.000000 0.000000 -6.733580 4.386831 -90.716026 -0.602398 5.263399 84.278897 -1.521668 8.075645 -16.811760 0.000000 0.000000 0.000000 8.562535 -7.408652 52.115196 4.008007 -1.241914 -8.243253 -6.178332 7.470985 6.305814 16.776830 -4.748020 -27.982029 0.000000 0.000000 0.000000 -12.642134 -14.216552 4.261966 -26.927440 -10.513067 -0.899044 13.455605 -16.480376 -1.484876 0.000000 0.000000 0.000000 9.550904 -3.110167 -1.152301 31.786077 -1.742226 -3.420760 -1.501442 21.888248 0.691441 0.000000 0.000000 0.000000 
-0.050236 0.670515 0.022213 3.507131 -1.102343 23.251040 15.122302 2.280587 -57.446872 -8.770244 8.190135 86.765942 12.512900 28.200015 -16.894179 0.000000 0.000000 0.000000 -6.270052 5.299290 -90.098396 -0.905819 5.883598 85.556801 -1.682207 7.629262 -17.053017 0.000000 0.000000 0.000000 8.689132 -7.206425 51.948187 4.148118 -1.282425 -8.529147 -5.569273 7.401159 6.606610 16.942885 -5.068985 -27.306848 0.000000 0.000000 0.000000 -13.662039 -13.295122 3.836318 -23.422100 -11.553942 -0.770271 12.640953 -13.284082 -1.061109 0.000000 0.000000 0.000000 9.629846 -3.639816 -1.482689 32.360367 0.014287 -3.163486 -2.010515 20.315391 0.554832 0.000000 0.000000 0.000000 
